<svg width="212" height="40" viewBox="0 0 212 40" fill="none" xmlns="http://www.w3.org/2000/svg">
<g clip-path="url(#clip0_5426_49889)">
<path d="M20.162 23.3887C19.9528 23.3889 19.7484 23.4504 19.5746 23.5653C19.4008 23.6803 19.2654 23.8436 19.1856 24.0346C19.1057 24.2256 19.085 24.4357 19.126 24.6383C19.167 24.8409 19.2679 25.027 19.416 25.173C19.564 25.3189 19.7526 25.4182 19.9577 25.4583C20.1629 25.4985 20.3755 25.4776 20.5687 25.3983C20.7619 25.319 20.9269 25.1849 21.0429 25.013C21.159 24.8411 21.2208 24.639 21.2206 24.4324C21.2206 24.2952 21.1932 24.1593 21.1399 24.0325C21.0867 23.9057 21.0087 23.7906 20.9104 23.6936C20.812 23.5967 20.6953 23.5198 20.5669 23.4675C20.4385 23.4152 20.3009 23.3884 20.162 23.3887Z" fill="#074E31"/>
<path d="M20.1628 16.6774C20.372 16.6779 20.5767 16.617 20.7508 16.5025C20.925 16.388 21.0609 16.225 21.1413 16.0342C21.2217 15.8434 21.243 15.6333 21.2025 15.4305C21.162 15.2277 21.0616 15.0414 20.9139 14.895C20.7662 14.7487 20.5778 14.6489 20.3727 14.6082C20.1676 14.5676 19.9549 14.5881 19.7615 14.6669C19.5681 14.7458 19.4027 14.8795 19.2863 15.0512C19.1699 15.223 19.1076 15.4249 19.1074 15.6316C19.1074 15.9084 19.2185 16.174 19.4164 16.37C19.6142 16.5661 19.8826 16.6766 20.1628 16.6774Z" fill="#074E31"/>
<path d="M40.5582 11.7397C40.5582 9.41869 39.8614 7.14977 38.5562 5.21989C37.2509 3.29001 35.3956 1.78586 33.225 0.89763C31.0545 0.00940417 28.666 -0.222999 26.3617 0.229809C24.0574 0.682616 21.9408 1.8003 20.2795 3.44152C18.0518 1.24055 15.0303 0.00400491 11.8797 0.00390626C8.72909 0.0038076 5.7075 1.24016 3.47963 3.44099C1.25176 5.64182 9.98692e-05 8.62683 5.97612e-09 11.7394C-9.98573e-05 14.8519 1.25137 17.837 3.4791 20.038C1.28194 22.2452 0.0564932 25.2207 0.0696036 28.3164C0.082714 31.4121 1.33333 34.3773 3.5491 36.5663C5.76487 38.7553 8.76634 39.9909 11.8999 40.0038C15.0334 40.0168 18.0453 38.8061 20.2795 36.6355C22.5137 38.8061 25.5256 40.0168 28.6591 40.0038C31.7927 39.9909 34.7941 38.7553 37.0099 36.5663C39.2257 34.3773 40.4763 31.4121 40.4894 28.3164C40.5025 25.2207 39.277 22.2452 37.0799 20.038C38.1844 18.9494 39.0603 17.6559 39.6572 16.2318C40.2542 14.8077 40.5603 13.2811 40.5582 11.7397ZM20.2774 3.44257C21.7466 3.44103 23.2097 3.63028 24.629 4.00546L20.2774 8.3024H20.2678L15.929 4.00546C17.3472 3.63015 18.8092 3.44089 20.2774 3.44257ZM8.40473 20.0369V20.0443L4.04675 24.336C3.28562 21.521 3.28562 18.5581 4.04675 15.7431L8.39515 20.039L8.40473 20.0369ZM11.8777 20.0369C11.8779 17.9465 12.6765 15.9331 14.1141 14.3992C15.5517 12.8652 17.5223 11.9238 19.632 11.7629H19.6522C19.8578 11.7482 20.0676 11.7408 20.2774 11.7408C20.3381 11.7408 20.3998 11.7408 20.4605 11.7408C21.4775 11.8142 22.4263 12.2732 23.1085 13.0219C23.7908 13.7705 24.1535 14.7508 24.1209 15.7576C24.0883 16.7644 23.6629 17.7198 22.9336 18.4238C22.2043 19.1279 21.2278 19.526 20.2081 19.535C20.1932 19.534 20.1783 19.534 20.1634 19.535C20.1482 19.534 20.1329 19.534 20.1176 19.535C19.3788 19.5398 18.6506 19.7096 17.9876 20.0317C17.3446 20.3424 16.7772 20.787 16.3246 21.3349C15.872 21.8829 15.5449 22.5211 15.3656 23.2058C15.1864 23.8905 15.1594 24.6054 15.2864 25.3014C15.4135 25.9974 15.6915 26.658 16.1015 27.2378C14.8185 26.511 13.7526 25.4624 13.0116 24.1979C12.2707 22.9334 11.881 21.498 11.882 20.0369H11.8777ZM20.2838 36.6334C18.8155 36.6347 17.3535 36.4451 15.9354 36.0694L20.2774 31.7746V31.7693H20.287V31.7746L24.6364 36.0705C23.2179 36.4461 21.7555 36.6358 20.287 36.6344L20.2838 36.6334ZM24.0879 27.4377C22.9112 28.0313 21.6082 28.3393 20.287 28.3362H20.173C20.14 28.3362 20.1048 28.3362 20.0665 28.3362C20.0282 28.3362 19.9824 28.3362 19.9398 28.3362C19.9281 28.3379 19.9163 28.3379 19.9046 28.3362C18.8813 28.2697 17.9243 27.8127 17.236 27.0617C16.5476 26.3108 16.1818 25.3248 16.216 24.3122C16.2502 23.2997 16.6816 22.3399 17.419 21.6359C18.1565 20.9319 19.1422 20.5389 20.1677 20.5398C21.0943 20.54 22.0024 20.2834 22.7888 19.7992C23.5752 19.3151 24.2084 18.6227 24.6165 17.8009C25.0245 16.979 25.1911 16.0605 25.0973 15.1498C25.0035 14.2391 24.6531 13.3726 24.0858 12.6488C25.4691 13.3428 26.6309 14.4016 27.4424 15.7078C28.2539 17.0141 28.6834 18.5169 28.6834 20.0495C28.6834 21.5822 28.2539 23.085 27.4424 24.3913C26.6309 25.6975 25.4691 26.7563 24.0858 27.4503L24.0879 27.4377ZM36.5144 24.3486L32.1628 20.039V20.0317L36.5112 15.7358C37.2723 18.5507 37.2723 21.5137 36.5112 24.3286" fill="#074E31"/>
<path d="M15.2043 24.4322C15.2043 23.5151 15.4648 22.6165 15.9562 21.8384C16.4476 21.0604 17.1501 20.4342 17.9839 20.0311C18.6469 19.709 19.3751 19.5392 20.1139 19.5345C20.1288 19.5335 20.1438 19.5335 20.1586 19.5345C20.1739 19.5334 20.1892 19.5334 20.2044 19.5345C21.2241 19.5255 22.2006 19.1273 22.9299 18.4233C23.6592 17.7192 24.0846 16.7639 24.1172 15.757C24.1498 14.7502 23.7871 13.7699 23.1048 13.0213C22.4226 12.2726 21.4738 11.8136 20.4568 11.7402C20.3972 11.7402 20.3344 11.7402 20.2737 11.7402C20.0607 11.7402 19.8541 11.7476 19.6485 11.7623H19.6283C17.8379 11.8995 16.1391 12.5996 14.781 13.7601C13.4228 14.9207 12.4766 16.4805 12.0812 18.211C11.6858 19.9415 11.862 21.7516 12.5839 23.376C13.3057 25.0004 14.5354 26.3536 16.0925 27.2372C15.5096 26.4154 15.1979 25.4357 15.2 24.4322H15.2043ZM20.1586 14.5884C20.368 14.588 20.5727 14.6489 20.747 14.7636C20.9212 14.8782 21.0571 15.0414 21.1374 15.2324C21.2177 15.4234 21.2388 15.6336 21.1981 15.8365C21.1574 16.0393 21.0566 16.2257 20.9086 16.3719C20.7605 16.5182 20.5719 16.6177 20.3666 16.658C20.1612 16.6982 19.9484 16.6773 19.7551 16.598C19.5618 16.5187 19.3966 16.3844 19.2806 16.2123C19.1645 16.0402 19.1028 15.8379 19.1032 15.6311C19.1035 15.3546 19.2148 15.0896 19.4127 14.8941C19.6105 14.6986 19.8788 14.5887 20.1586 14.5884Z" fill="#D2AF6B"/>
<path d="M24.081 12.6367C24.6483 13.3606 24.9988 14.2272 25.0925 15.138C25.1863 16.0488 25.0196 16.9673 24.6114 17.7893C24.2032 18.6112 23.5698 19.3035 22.7833 19.7876C21.9967 20.2717 21.0885 20.5281 20.1618 20.5278C19.1364 20.5271 18.1509 20.9203 17.4136 21.6244C16.6764 22.3285 16.2452 23.2882 16.2112 24.3007C16.1771 25.3131 16.543 26.299 17.2313 27.0498C17.9197 27.8007 18.8766 28.2576 19.8998 28.3241C19.9115 28.3253 19.9233 28.3253 19.9349 28.3241C19.9765 28.3241 20.0191 28.3294 20.0627 28.3294C20.1064 28.3294 20.1298 28.3294 20.1618 28.3294H20.2768C22.1619 28.3257 23.991 27.6958 25.47 26.5409C26.9489 25.3861 27.9918 23.7734 28.4309 21.9623C28.8699 20.1511 28.6797 18.2467 27.8907 16.5553C27.1017 14.8638 25.7599 13.4837 24.081 12.6367ZM20.1618 25.4781C19.9527 25.4779 19.7483 25.4164 19.5745 25.3015C19.4008 25.1866 19.2654 25.0233 19.1855 24.8324C19.1056 24.6415 19.0848 24.4314 19.1258 24.2288C19.1667 24.0262 19.2675 23.8402 19.4154 23.6942C19.5634 23.5482 19.7518 23.4488 19.9569 23.4085C20.162 23.3683 20.3746 23.3891 20.5678 23.4682C20.761 23.5473 20.9261 23.6812 21.0422 23.853C21.1584 24.0248 21.2204 24.2267 21.2204 24.4333C21.2205 24.5706 21.1932 24.7066 21.1401 24.8335C21.0869 24.9604 21.0089 25.0757 20.9106 25.1728C20.8122 25.2698 20.6955 25.3467 20.567 25.3991C20.4385 25.4515 20.3008 25.4784 20.1618 25.4781Z" fill="#D2AF6B"/>
<path d="M8.40511 20.0454V20.0371L8.40039 20.0406L8.40511 20.0454Z" fill="#074E31"/>
<path d="M20.2787 8.30798H20.283L20.2787 8.30273L20.2734 8.30798H20.2787Z" fill="#074E31"/>
<path d="M20.2787 31.7695H20.2734L20.2787 31.7748L20.283 31.7695H20.2787Z" fill="#074E31"/>
<path d="M32.1543 20.0454L32.1602 20.0406L32.1543 20.0371V20.0454Z" fill="#074E31"/>
<path d="M15.9297 36.0693C18.779 36.8213 21.7782 36.8213 24.6276 36.0693L20.2781 31.7734L15.9297 36.0693Z" fill="white"/>
<path d="M3.48083 20.0391C3.47798 21.4895 3.66847 22.9338 4.04741 24.335L8.39581 20.0391L4.04741 15.7422C3.66715 17.1436 3.47522 18.5883 3.47657 20.0391" fill="white"/>
<path d="M24.6297 4.00626C21.7794 3.25573 18.7799 3.25573 15.9297 4.00626L20.2792 8.3032L24.6297 4.00626Z" fill="white"/>
<path d="M32.1621 20.0391L36.5105 24.335C37.2716 21.5201 37.2716 18.5571 36.5105 15.7422L32.1621 20.0391Z" fill="white"/>
<path d="M50.6953 30.053L57.4389 19.64L51.2725 10.0371H55.8893L59.7478 16.129L63.666 10.0371H68.2231L62.0557 19.6105L68.7993 30.053H64.1218L59.7169 23.151L55.3121 30.053H50.6953Z" fill="#2D2A26"/>
<path d="M85.5028 30.053L83.8318 25.492H75.8124L74.1425 30.053H69.8633L77.6378 10.0371H82.0128L89.7873 30.053H85.5028ZM77.0893 21.7706H82.5261L79.8221 14.4487L77.0893 21.7706Z" fill="#2D2A26"/>
<path d="M106.505 30.053L104.834 25.492H96.8147L95.1437 30.053H90.8613L98.6358 10.0371H103.011L110.785 30.053H106.505ZM98.0916 21.7706H103.528L100.825 14.4487L98.0916 21.7706Z" fill="#2D2A26"/>
<path d="M116.921 30.053H112.881V10.0371H116.921V18.0797H124.607V10.0371H128.647V30.053H124.607V21.8H116.921V30.053Z" fill="#2D2A26"/>
<path d="M147.146 30.053H140.949V10.0371H152.771V13.7585H144.841V17.9292H147.666C149.796 17.9292 151.406 18.4297 152.496 19.4306C153.586 20.4316 154.133 21.8916 154.136 23.8107C154.136 25.9318 153.514 27.5023 152.269 28.5222C151.024 29.542 149.318 30.0523 147.151 30.053H147.146ZM144.841 21.2298V26.6325H146.482C147.636 26.6325 148.542 26.4473 149.2 26.077C149.858 25.7066 150.187 24.9915 150.188 23.9317C150.188 22.8711 149.859 22.1557 149.2 21.7853C148.541 21.415 147.635 21.2298 146.482 21.2298H144.841Z" fill="#2D2A26"/>
<path d="M170.464 30.053L168.793 25.492H160.774L159.104 30.053H154.82L162.595 10.0371H166.97L174.744 30.053H170.464ZM162.051 21.7706H167.489L164.784 14.4487L162.051 21.7706Z" fill="#2D2A26"/>
<path d="M180.88 30.053H176.84V10.0371H180.88V18.0797H188.565V10.0371H192.606V30.053H188.565V21.8H180.88V30.053Z" fill="#2D2A26"/>
<path d="M200.515 30.053H196.475V10.0371H200.515V17.8398L207.805 10.0371H212.999L205.04 18.469L212.787 30.053H208.017L202.277 21.3508L200.515 23.2709V30.053Z" fill="#2D2A26"/>
</g>
<defs>
<clipPath id="clip0_5426_49889">
<rect width="212" height="40" fill="white"/>
</clipPath>
</defs>
</svg>
