<?xml version="1.0" standalone="no"?>
<!DOCTYPE svg PUBLIC "-//W3C//DTD SVG 20010904//EN"
 "http://www.w3.org/TR/2001/REC-SVG-20010904/DTD/svg10.dtd">
<svg version="1.0" xmlns="http://www.w3.org/2000/svg"
 width="1024.000000pt" height="1024.000000pt" viewBox="0 0 1024.000000 1024.000000"
 preserveAspectRatio="xMidYMid meet">

<g transform="translate(0.000000,1024.000000) scale(0.100000,-0.100000)"
fill="#000000" stroke="none">
<path d="M5845 8186 c-45 -15 -167 -82 -228 -127 -45 -32 -62 -36 -70 -15 -3
8 -23 20 -44 25 -54 15 -309 13 -433 -3 -208 -28 -578 -141 -690 -211 -19 -12
-66 -39 -105 -60 -202 -109 -452 -327 -602 -525 -40 -52 -104 -135 -142 -185
-127 -163 -276 -502 -331 -755 -51 -233 -53 -560 -6 -815 26 -141 105 -395
149 -483 45 -87 62 -117 70 -120 4 -2 7 -11 7 -20 0 -14 2 -15 9 -3 8 13 12
13 28 1 17 -14 17 -14 2 5 -10 11 -20 43 -23 70 -7 48 -6 49 9 27 9 -12 13
-27 9 -34 -4 -6 -3 -8 3 -5 5 3 29 -26 54 -66 126 -202 252 -360 336 -418 24
-16 69 -53 100 -80 32 -28 90 -69 128 -91 39 -23 135 -79 214 -126 166 -98
263 -142 446 -202 197 -64 279 -79 484 -90 374 -19 682 30 939 150 93 44 205
115 241 154 24 26 27 26 155 25 103 -1 124 -3 97 -11 -40 -11 -69 -29 -139
-85 -127 -102 -407 -230 -619 -284 -201 -51 -288 -60 -534 -60 -312 1 -473 27
-709 114 -186 68 -538 258 -664 358 -27 22 -53 39 -58 39 -12 0 -3 -61 13
-100 16 -37 248 -240 274 -240 2 0 51 -28 107 -62 57 -34 141 -79 188 -101 47
-21 130 -60 185 -87 55 -26 138 -58 185 -70 47 -12 119 -32 160 -45 84 -26
270 -50 495 -64 118 -7 166 -6 225 5 41 8 111 18 155 23 129 15 215 30 235 41
10 6 30 10 44 10 14 0 51 7 83 16 32 9 71 19 88 22 16 3 34 10 40 16 11 13 59
30 113 41 18 4 45 13 60 21 15 8 34 14 43 14 9 0 24 9 34 20 10 11 24 20 32
20 7 0 13 5 13 10 0 6 5 10 12 10 6 0 22 9 34 21 12 11 28 22 35 23 20 4 53
19 59 26 3 3 21 17 40 30 19 13 37 27 40 30 16 17 71 50 85 50 8 0 15 7 15 15
0 12 32 34 169 115 55 33 81 53 134 105 31 30 61 55 68 55 7 0 10 3 7 6 -3 3
29 40 71 83 42 42 88 90 102 106 32 38 99 142 99 156 0 5 7 12 15 15 8 4 15
13 15 21 0 8 7 21 15 29 8 9 15 26 15 40 0 13 4 24 9 24 12 0 41 57 41 79 0 9
7 36 16 60 8 24 12 51 8 60 -8 20 -6 76 7 157 13 88 15 480 2 496 -6 7 -14 38
-18 68 -4 30 -13 78 -21 105 -21 76 -44 201 -53 291 -5 44 -13 90 -20 102 -6
11 -11 30 -11 41 0 23 -30 91 -41 91 -4 0 -10 15 -14 33 -3 17 -17 55 -30 82
l-23 50 -2 -65 c-1 -36 -6 -78 -11 -95 -5 -20 -7 -3 -4 51 10 159 -33 309
-137 481 -67 111 -158 209 -274 293 -32 23 -63 46 -68 51 -5 4 12 34 37 66 69
89 105 169 122 275 23 134 31 152 93 220 52 56 165 218 157 226 -10 10 -79
-34 -138 -88 -57 -52 -68 -59 -73 -43 -17 54 -28 73 -52 96 -36 33 -74 41
-115 24 -65 -28 -109 -109 -93 -172 9 -34 69 -100 105 -114 34 -15 56 -51 48
-81 -5 -18 -3 -19 11 -8 23 19 10 -2 -52 -85 -55 -73 -82 -96 -124 -102 -15
-2 -61 -12 -102 -21 -46 -10 -97 -14 -132 -11 -47 4 -58 2 -58 -10 0 -11 -11
-8 -49 12 -56 31 -114 102 -143 177 -26 66 -28 183 -4 247 22 59 21 87 -4 94
-11 3 -28 24 -39 49 -23 53 -86 114 -171 165 -82 50 -150 75 -272 102 -111 24
-137 25 -193 7z m299 -195 c76 -37 112 -77 162 -177 29 -58 37 -87 41 -151 6
-85 -14 -181 -44 -215 -22 -24 -32 -22 -26 5 7 25 3 22 -50 -44 -35 -45 -77
-71 -162 -100 -22 -8 -46 -20 -54 -28 -34 -32 -179 13 -253 78 -75 66 -125
211 -115 331 13 153 105 270 255 327 60 22 168 11 246 -26z m1042 -156 c18
-34 18 -35 -2 -62 -12 -16 -29 -30 -39 -32 -40 -7 -59 64 -29 107 22 32 48 27
70 -13z m-1816 6 c0 -5 -9 -15 -21 -23 -20 -13 -21 -24 -30 -373 -6 -198 -8
-368 -5 -377 5 -22 -17 -24 -35 -2 -7 8 -25 22 -41 30 l-28 15 0 364 0 364 23
4 c42 8 137 7 137 -2z m1903 -136 c-30 -58 -56 -105 -58 -105 -3 0 1 12 7 26
9 20 9 27 0 33 -9 5 -7 13 9 27 11 10 28 32 36 49 13 24 52 75 58 75 1 0 -22
-47 -52 -105z m-2313 73 c0 -18 -13 -33 -27 -34 -7 -1 -16 -2 -20 -2 -5 -1 -7
-75 -5 -164 1 -90 -1 -190 -5 -223 -7 -56 -10 -60 -35 -63 -32 -4 -39 -37 -10
-46 9 -2 1 -4 -18 -3 l-35 2 -3 257 -2 256 52 11 c68 14 91 18 101 20 4 0 7
-5 7 -11z m-13 -160 c-2 -13 -4 -3 -4 22 0 25 2 35 4 23 2 -13 2 -33 0 -45z
m-391 6 c-3 -9 -7 -82 -7 -162 -2 -117 -3 -135 -9 -87 -4 33 -8 97 -9 143 -1
77 -11 103 -25 66 -3 -9 -6 -74 -6 -144 l0 -129 -33 -6 c-25 -5 -36 -14 -45
-38 -23 -59 -33 -8 -30 158 l3 156 65 29 c74 34 105 38 96 14z m-410 -243
c-10 -11 -26 -34 -35 -53 -10 -18 -31 -39 -47 -47 -16 -8 -30 -18 -32 -23 -4
-8 -42 -12 -42 -4 0 20 23 45 82 91 69 55 107 73 74 36z m811 -43 c-3 -8 -6
-5 -6 6 -1 11 2 17 5 13 3 -3 4 -12 1 -19z m0 -112 c14 -14 -5 -14 -42 0 l-40
14 38 -4 c21 -2 41 -7 44 -10z m-237 -176 c194 -21 345 -80 472 -184 103 -86
196 -242 239 -406 34 -127 32 -296 -4 -405 -38 -114 -136 -274 -220 -359 -77
-78 -107 -77 -34 1 107 113 197 261 227 372 39 147 28 331 -27 450 l-31 65 -7
-32 c-7 -32 -7 -32 -67 -32 -53 0 -60 -2 -55 -17 44 -135 48 -160 44 -263 -5
-120 -33 -217 -88 -297 -77 -114 -225 -225 -364 -274 -91 -32 -216 -41 -526
-37 l-286 3 -7 -194 c-10 -322 -7 -839 5 -864 18 -34 10 -26 -196 221 l-30 36
-3 1045 c-2 575 0 1074 3 1108 l7 63 356 3 c196 1 389 3 427 4 39 2 113 -2
165 -7z m1983 -5 c107 -19 228 -62 308 -110 137 -84 259 -244 301 -398 24 -86
28 -268 9 -362 -21 -99 -81 -211 -164 -305 l-75 -85 93 -97 c109 -113 147
-183 176 -321 22 -106 26 -232 7 -221 -8 5 -9 2 -5 -10 4 -10 3 -15 -3 -11 -6
3 -10 39 -10 79 0 85 -14 170 -41 240 -18 49 -20 51 -61 54 -24 1 -58 8 -75
14 -28 10 -35 9 -46 -5 -11 -16 -18 -12 -74 47 -33 35 -84 81 -112 101 -52 37
-63 49 -37 39 22 -9 115 46 140 82 12 18 34 43 49 54 70 55 168 216 204 335
33 112 17 334 -32 425 -13 24 -14 24 -8 -12 7 -46 -6 -64 -58 -78 -22 -6 -39
-15 -39 -21 0 -6 -5 -7 -12 -3 -8 5 -9 2 -4 -12 14 -34 19 -207 7 -269 -30
-158 -165 -316 -344 -401 l-72 -34 -414 -10 c-228 -6 -416 -11 -417 -13 -1 -1
-5 -254 -8 -561 l-8 -559 102 94 102 94 286 5 c284 5 288 5 343 31 258 121
328 465 131 640 l-47 42 50 -27 c58 -30 144 -36 169 -11 8 8 19 15 24 15 6 0
12 5 14 11 2 6 14 2 29 -10 15 -11 30 -17 34 -13 5 4 5 2 1 -5 -3 -6 3 -30 15
-52 79 -152 61 -376 -42 -530 -58 -86 -159 -175 -254 -221 -129 -63 -183 -70
-597 -71 l-364 -2 -103 -98 c-58 -55 -105 -99 -105 -99 -1 0 -1 594 -1 1320
l-1 1319 131 4 c430 10 825 6 908 -8z m-3184 -590 c-11 -115 -18 -997 -8
-1073 4 -31 10 -70 14 -87 3 -16 -5 -3 -20 30 -93 214 -99 251 -99 650 l0 320
28 75 c26 69 85 185 91 178 1 -2 -2 -43 -6 -93z m4038 -252 c-3 -10 -5 -4 -5
12 0 17 2 24 5 18 2 -7 2 -21 0 -30z m-60 -316 c2 -130 17 -230 47 -316 9 -24
16 -51 15 -60 0 -9 -8 9 -18 39 -20 62 -66 155 -111 226 -16 27 -30 57 -30 69
0 11 20 52 45 89 25 38 45 73 45 77 0 5 1 9 3 9 1 0 3 -60 4 -133z m-661 -162
c38 -24 28 -25 -31 -2 -30 12 -55 25 -55 29 0 10 58 -8 86 -27z m-1488 -174
c-21 -18 -23 -29 -29 -148 -3 -70 -6 -388 -7 -707 -1 -318 -5 -582 -8 -587 -9
-15 -77 -40 -85 -32 -4 5 -9 313 -11 685 l-3 678 80 80 c54 55 81 76 83 65 2
-9 -7 -24 -20 -34z m710 -306 c-1 -151 -3 -209 -8 -170 -10 81 -10 492 0 440
4 -22 8 -143 8 -270z m-1906 -335 l-9 -475 -1 370 c-2 322 8 678 15 605 2 -14
-1 -239 -5 -500z m808 411 c0 -5 -13 -13 -28 -19 l-28 -9 -2 -499 c-1 -275 -5
-534 -8 -577 l-7 -78 -41 3 -41 3 -3 572 -2 573 27 6 c16 3 46 11 68 19 51 16
65 17 65 6z m-402 -88 c-3 -12 -12 -17 -29 -16 l-26 1 -6 -255 c-4 -141 -7
-348 -7 -461 l0 -204 -42 7 c-24 4 -46 9 -50 12 -10 5 -11 785 -2 872 l7 61
79 0 c70 0 79 -2 76 -17z m-1145 -170 c9 -24 15 -43 12 -43 -6 0 -35 69 -35
83 0 15 5 7 23 -40z m1134 -300 c-1 -43 -3 -8 -3 77 0 85 2 120 3 78 2 -43 2
-113 0 -155z m2755 158 c-10 -20 -20 -38 -25 -39 -4 -2 -4 -9 0 -15 3 -7 3 -9
-2 -5 -4 4 -16 -3 -26 -15 -11 -12 -3 12 18 55 21 42 41 72 44 66 4 -6 0 -27
-9 -47z m-74 -123 c-7 -13 -20 -28 -28 -35 -8 -7 -11 -13 -6 -13 6 0 -3 -13
-19 -30 -27 -28 -58 -32 -34 -4 6 7 15 11 20 8 5 -3 9 2 9 11 0 17 50 85 63
85 4 0 2 -10 -5 -22z m-2681 -140 c-3 -8 -6 -5 -6 6 -1 11 2 17 5 13 3 -3 4
-12 1 -19z m1578 -228 c-16 -4 -102 -7 -190 -7 l-160 1 115 6 c174 9 271 9
235 0z m-1578 -42 c-3 -8 -6 -5 -6 6 -1 11 2 17 5 13 3 -3 4 -12 1 -19z m1279
-168 c41 0 42 -1 31 -24 -7 -13 -15 -22 -19 -20 -4 3 -15 -3 -25 -13 -29 -29
-118 -83 -137 -83 -15 0 -17 9 -14 76 l3 76 59 -6 c32 -3 78 -6 102 -6z"/>
<path d="M5977 7913 c-4 -3 -7 -16 -7 -28 0 -15 -10 -25 -35 -34 -52 -18 -75
-54 -75 -116 0 -38 6 -60 21 -79 28 -36 93 -67 154 -75 37 -4 51 -11 53 -24
11 -56 -87 -77 -148 -32 -19 14 -42 25 -52 25 -18 0 -32 -35 -26 -66 4 -23 48
-55 89 -63 24 -5 35 -13 39 -31 5 -20 12 -25 35 -25 25 0 31 4 33 28 3 22 10
29 33 34 16 3 43 21 60 41 28 32 31 40 27 88 -3 37 -12 63 -32 88 -25 34 -56
48 -56 26 0 -26 -116 5 -154 40 -23 22 -15 52 20 75 28 18 44 13 44 -16 0 -14
7 -19 25 -19 14 0 25 5 25 12 0 6 6 3 14 -8 14 -18 17 -18 58 -4 62 22 59 47
-13 84 -38 20 -59 39 -67 58 -7 20 -17 28 -34 28 -14 0 -28 -3 -31 -7z"/>
<path d="M4234 6843 c-209 -3 -233 -5 -239 -21 -11 -29 -18 -651 -10 -914 6
-211 9 -248 22 -248 9 0 53 37 100 83 l84 82 242 6 c278 7 311 15 420 97 106
81 164 180 182 312 19 136 -84 310 -222 376 -49 23 -76 28 -178 34 l-120 7
100 3 c134 4 140 3 216 -32 66 -29 67 -30 95 -12 37 23 63 54 64 76 0 27 16
29 46 7 20 -15 19 -11 -6 11 -44 40 -125 81 -215 110 -79 25 -175 29 -581 23z
m-67 -361 c-4 -91 -8 -262 -8 -381 -1 -178 -3 -202 -10 -136 -5 44 -10 220
-11 392 -3 303 -3 311 16 301 18 -10 19 -20 13 -176z m383 -22 c0 -5 -11 -10
-25 -10 l-25 0 0 -194 0 -195 -32 -3 c-35 -4 -29 -8 32 -26 35 -10 35 -10 -17
-11 -28 -1 -58 -4 -67 -7 -14 -5 -16 18 -16 219 l0 226 38 4 c75 8 112 7 112
-3z m347 -138 c3 -13 3 -47 1 -76 -4 -47 -12 -63 -57 -120 -29 -36 -55 -66
-57 -66 -2 0 -4 81 -4 180 l0 180 55 -37 c32 -22 58 -48 62 -61z"/>
<path d="M5915 6843 l-30 -4 0 -297 c0 -163 1 -407 3 -542 l2 -244 80 84 81
85 -6 100 c-2 55 -7 222 -11 370 -6 252 -7 271 -26 292 l-20 22 42 -21 c23
-12 38 -24 33 -27 -4 -3 -7 -166 -5 -361 l3 -355 292 0 c325 0 342 3 423 64
109 82 160 188 152 315 -9 128 -85 238 -211 301 l-70 35 -163 0 c-111 0 -164
3 -164 11 0 7 52 10 166 8 149 -3 172 -6 213 -26 95 -46 147 -40 201 25 l29
36 23 -19 c13 -11 10 -5 -7 14 -36 39 -188 115 -263 130 -50 10 -694 13 -767
4z m235 -173 c12 -8 11 -10 -7 -10 -13 0 -23 5 -23 10 0 13 11 13 30 0z"/>
<path d="M6750 7949 c-68 -27 -121 -93 -135 -170 -6 -33 -3 -39 48 -85 54 -50
108 -74 164 -74 36 0 53 -16 53 -51 0 -34 -41 -69 -82 -69 -30 0 -78 41 -78
67 0 10 -11 13 -42 11 -39 -3 -43 -5 -40 -28 10 -80 104 -160 187 -160 53 0
128 25 151 51 25 28 28 112 7 174 -15 43 -25 54 -68 77 -31 17 -66 28 -90 28
-79 0 -112 57 -59 99 39 30 85 27 123 -8 36 -34 38 -44 11 -71 -11 -11 -16
-20 -12 -20 4 0 27 20 51 44 39 40 43 48 37 78 -6 34 -51 85 -93 107 -26 13
-99 13 -133 0z"/>
<path d="M7385 7702 c-37 -23 -82 -75 -103 -119 -14 -29 -14 -36 2 -77 34 -89
108 -120 177 -73 57 38 79 81 79 153 0 55 -4 68 -27 94 -36 40 -86 48 -128 22z
m75 -118 c0 -68 -53 -99 -86 -49 -15 23 -15 27 2 53 28 44 46 53 67 35 9 -9
17 -26 17 -39z"/>
<path d="M3313 3400 c-52 -12 -97 -44 -120 -86 -29 -50 -29 -78 2 -129 27 -47
85 -78 167 -90 64 -10 84 -25 69 -53 -16 -30 -49 -36 -129 -22 -52 10 -74 10
-90 1 -75 -40 72 -133 183 -117 91 14 180 140 144 204 -18 33 -75 72 -103 72
-40 0 -96 21 -123 45 l-28 25 28 25 c35 31 87 33 132 5 l33 -20 36 37 36 37
-37 23 c-40 25 -126 54 -152 52 -9 -1 -30 -4 -48 -9z"/>
<path d="M4595 3402 c-70 -10 -65 -1 -65 -132 0 -65 -4 -121 -9 -124 -5 -4
-18 9 -29 26 -12 18 -65 77 -120 131 -79 77 -105 97 -128 97 l-29 0 6 -227 c4
-126 7 -231 8 -235 1 -8 81 -31 87 -26 2 2 7 62 10 133 l7 128 125 -127 c160
-163 166 -164 170 -16 1 58 -1 166 -5 240 -8 128 -9 135 -28 132z"/>
<path d="M6520 3402 l-45 -3 1 -173 c1 -169 2 -175 27 -219 20 -33 41 -52 79
-71 28 -14 63 -26 76 -26 47 0 110 22 146 52 64 53 68 70 67 267 -1 96 -4 177
-6 179 -2 2 -27 1 -54 -3 l-51 -7 0 -169 0 -169 -32 -20 c-45 -27 -89 -26
-122 5 -24 22 -26 31 -27 107 -1 46 -4 121 -8 168 l-6 85 -45 -3z"/>
<path d="M1740 3157 l0 -244 53 5 c28 2 54 7 57 9 3 2 5 37 5 76 l0 72 75 5
c206 14 267 163 117 284 -38 31 -40 31 -173 34 l-134 4 0 -245z m260 123 c27
-27 25 -56 -5 -85 -20 -21 -34 -25 -85 -25 l-60 0 0 65 0 65 65 0 c52 0 69 -4
85 -20z"/>
<path d="M2205 3157 l-1 -243 161 3 c88 3 166 6 173 9 9 2 12 18 10 46 l-3 43
-124 3 -123 3 6 31 c3 17 6 37 6 46 0 13 15 14 105 9 l105 -6 0 43 0 43 -61 7
c-34 3 -79 6 -100 6 l-39 0 0 45 0 45 54 0 c29 0 81 3 115 6 59 7 61 8 61 36
0 16 -5 38 -10 49 -10 18 -23 19 -173 19 l-162 0 0 -243z"/>
<path d="M2660 3303 c0 -54 -3 -162 -7 -240 l-6 -143 61 0 62 0 0 75 c0 74 0
75 26 75 27 0 59 -28 124 -108 35 -43 35 -43 93 -40 l57 3 -55 80 c-50 71 -54
81 -39 90 100 58 117 164 37 232 -73 63 -107 73 -236 73 l-117 0 0 -97z m270
-29 c6 -6 13 -27 17 -47 5 -35 4 -38 -32 -52 -22 -10 -58 -15 -88 -13 l-52 3
-3 64 -3 63 75 -4 c42 -2 80 -8 86 -14z"/>
<path d="M3774 3380 c-86 -43 -164 -148 -164 -221 0 -45 39 -127 84 -177 67
-74 183 -82 284 -19 111 68 151 186 101 297 -28 63 -64 97 -126 120 -68 25
-127 25 -179 0z m156 -108 c49 -24 65 -57 56 -116 -18 -116 -137 -164 -225
-90 -41 34 -49 79 -23 138 35 79 115 107 192 68z"/>
<path d="M4908 3383 c-37 -42 -126 -263 -162 -399 l-13 -51 44 -10 c38 -9 45
-8 53 8 6 10 10 28 10 41 0 44 11 49 106 46 l89 -3 14 -47 15 -48 58 0 c32 0
58 1 58 3 0 7 -140 328 -175 400 -30 62 -42 77 -60 77 -12 0 -29 -8 -37 -17z
m65 -202 c9 -27 17 -51 17 -55 0 -3 -22 -6 -50 -6 -27 0 -50 3 -50 6 0 11 53
104 59 104 4 0 14 -22 24 -49z"/>
<path d="M5270 3159 l0 -241 150 4 c82 2 151 6 154 9 2 2 6 24 7 48 l3 44
-106 -2 -106 -2 -5 33 c-3 18 -2 104 1 191 l5 157 -51 0 -52 0 0 -241z"/>
<path d="M5967 3160 l3 -242 131 1 c147 2 193 15 234 63 35 42 35 118 0 153
-13 14 -29 25 -36 25 -6 0 3 16 20 35 37 43 40 79 9 125 -47 69 -64 75 -221
78 l-142 3 2 -241z m252 131 c20 -13 17 -62 -5 -78 -10 -7 -44 -13 -81 -13
l-63 0 0 50 0 50 68 0 c37 0 73 -4 81 -9z m5 -187 c30 -11 40 -43 20 -65 -14
-15 -31 -19 -91 -19 l-73 0 0 45 0 45 64 0 c35 0 72 -3 80 -6z"/>
<path d="M7005 3161 l0 -241 113 0 c148 0 190 11 245 66 55 53 79 102 79 158
0 102 -47 177 -139 222 -50 25 -71 29 -177 32 l-121 4 0 -241z m245 114 c49
-25 70 -62 70 -121 0 -88 -57 -134 -167 -134 l-43 0 0 135 0 135 55 0 c31 0
69 -7 85 -15z"/>
<path d="M7665 3382 c-84 -41 -135 -121 -135 -214 0 -76 16 -124 57 -169 52
-57 104 -81 177 -82 78 -1 132 15 176 52 35 29 35 29 38 122 l4 94 -116 1
-116 1 0 -33 c0 -18 -3 -39 -6 -48 -5 -14 3 -16 55 -16 61 0 61 0 61 -29 0
-34 -14 -41 -78 -41 -53 0 -104 26 -123 62 -7 13 -13 51 -13 84 -1 49 3 67 19
84 53 59 135 67 188 20 l34 -30 42 46 41 45 -68 32 c-85 40 -177 47 -237 19z"/>
<path d="M8100 3160 l0 -240 170 0 170 0 0 51 0 51 -60 -7 c-33 -4 -87 -4
-120 0 l-60 7 0 39 0 39 54 0 c29 0 74 3 100 6 l46 7 0 42 c0 41 0 41 -37 42
-21 0 -66 1 -100 2 l-63 1 0 44 0 43 117 7 c65 4 118 8 119 9 1 1 4 23 7 50
l7 47 -175 0 -175 0 0 -240z"/>
<path d="M8530 3344 l0 -56 68 3 67 4 8 -190 c4 -104 9 -190 10 -190 1 -1 24
0 51 3 l49 4 -7 189 -7 189 72 0 72 0 -7 31 c-3 17 -6 40 -6 50 0 18 -11 19
-185 19 l-185 0 0 -56z"/>
<path d="M3620 2612 c0 -24 19 -42 46 -42 21 0 23 -6 29 -95 6 -83 10 -95 26
-95 16 0 19 11 21 103 l3 102 30 3 c17 2 34 8 40 13 19 19 -19 29 -107 29 -78
0 -88 -2 -88 -18z"/>
<path d="M3895 2621 c3 -6 6 -62 6 -126 l1 -116 76 3 c75 3 77 4 77 28 0 23
-4 25 -47 28 l-48 3 0 95 0 94 -36 0 c-19 0 -33 -4 -29 -9z"/>
<path d="M4231 2617 c-41 -14 -68 -49 -77 -100 -6 -35 -3 -41 43 -87 56 -56
75 -60 140 -30 46 21 83 69 83 110 0 38 -36 90 -75 106 -41 17 -68 17 -114 1z
m103 -68 c30 -35 32 -56 10 -87 -34 -49 -124 -15 -124 46 0 72 68 97 114 41z"/>
<path d="M4604 2622 c-57 -9 -91 -100 -60 -159 20 -40 72 -83 99 -83 12 0 38
5 58 10 31 9 38 16 43 43 3 19 3 48 0 66 -7 32 -7 32 -58 29 -39 -2 -52 -7
-54 -21 -3 -12 5 -19 27 -23 21 -5 31 -12 31 -25 0 -34 -57 -28 -87 9 -48 58
-20 99 71 104 61 3 82 19 49 36 -22 11 -90 19 -119 14z"/>
<path d="M4999 2608 c-1 -7 0 -24 1 -38 1 -14 5 -59 9 -100 5 -66 8 -75 26
-75 18 0 20 6 17 65 l-3 65 55 -60 c31 -33 56 -63 56 -67 0 -5 9 -8 20 -8 23
0 27 13 35 138 5 73 4 92 -7 92 -30 0 -39 -18 -40 -76 0 -57 -1 -58 -16 -36
-21 32 -120 112 -138 112 -8 0 -14 -6 -15 -12z"/>
<path d="M5364 2598 c3 -13 6 -67 6 -121 l0 -99 80 4 c74 3 80 5 80 24 0 23
-23 34 -72 34 -45 0 -35 29 11 36 67 11 67 54 0 54 -32 0 -39 4 -39 19 0 15
10 20 50 26 40 6 50 11 50 26 0 17 -8 19 -86 19 -85 0 -86 0 -80 -22z"/>
<path d="M5878 2500 c3 -118 4 -120 26 -120 19 0 25 7 32 43 8 40 11 42 47 45
l37 3 0 -40 c0 -37 2 -41 25 -41 l26 0 -3 115 -3 115 -27 0 c-27 0 -28 -2 -28
-50 l0 -50 -35 0 -35 0 0 50 c0 50 0 50 -32 50 l-33 0 3 -120z"/>
<path d="M6301 2606 c-13 -16 -71 -179 -71 -202 0 -25 53 -14 65 14 16 35 68
30 104 -10 16 -18 33 -29 37 -25 9 8 -20 100 -58 190 -16 36 -26 47 -43 47
-12 0 -28 -6 -34 -14z m31 -127 c-35 -7 -35 -7 -20 25 l12 27 17 -23 c18 -23
18 -23 -9 -29z"/>
<path d="M6570 2532 c0 -83 2 -90 28 -115 40 -38 83 -44 125 -18 46 28 59 64
56 150 -3 70 -4 71 -31 71 l-28 0 0 -85 c0 -93 -6 -103 -55 -91 -24 6 -25 9
-25 91 l0 85 -35 0 -35 0 0 -88z"/>
<path d="M6914 2598 c3 -13 6 -66 6 -119 l0 -95 85 0 85 1 0 28 0 28 -55 -6
c-54 -7 -55 -7 -55 19 0 25 3 26 51 26 47 0 50 2 47 23 -3 19 -10 22 -55 25
-44 3 -53 6 -53 22 0 15 11 19 60 25 50 6 60 10 60 26 0 17 -8 19 -91 19 -90
0 -91 0 -85 -22z"/>
<path d="M2465 2521 c-42 -4 -60 -10 -60 -20 0 -11 75 -14 450 -18 248 -2 461
-5 475 -6 14 0 53 0 88 1 53 2 62 5 62 21 0 10 -7 22 -16 25 -20 8 -917 5
-999 -3z"/>
<path d="M7308 2524 c-3 -3 -4 -13 -1 -22 4 -16 39 -17 414 -21 l409 -3 0 26
0 26 -408 0 c-225 0 -411 -3 -414 -6z"/>
</g>
</svg>
